<?xml version="1.0" standalone="no"?>
<!DOCTYPE svg PUBLIC "-//W3C//DTD SVG 20010904//EN"
 "http://www.w3.org/TR/2001/REC-SVG-20010904/DTD/svg10.dtd">
<svg version="1.0" xmlns="http://www.w3.org/2000/svg"
 width="594.000000pt" height="594.000000pt" viewBox="0 0 594.000000 594.000000"
 preserveAspectRatio="xMidYMid meet">
<metadata>
Created by potrace 1.14, written by Peter Selinger 2001-2017
</metadata>
<g transform="translate(0.000000,594.000000) scale(0.100000,-0.100000)"
fill="#000000" stroke="none">
<path d="M3018 5925 c-3 -4 -100 -10 -215 -15 -195 -8 -245 -15 -493 -64 -14
-3 -65 -17 -115 -32 -49 -14 -101 -28 -115 -31 -14 -3 -27 -9 -30 -12 -3 -3
-32 -15 -65 -26 -33 -10 -69 -24 -80 -31 -11 -7 -31 -15 -45 -19 -29 -8 -312
-146 -320 -156 -3 -3 -21 -14 -40 -24 -44 -22 -242 -153 -255 -169 -5 -6 -20
-16 -32 -21 -37 -16 -158 -122 -287 -251 -122 -121 -236 -247 -236 -259 0 -4
-20 -30 -44 -58 -36 -43 -103 -138 -146 -207 -5 -8 -21 -32 -35 -53 -14 -21
-25 -44 -25 -52 0 -8 -4 -16 -9 -20 -14 -8 -101 -169 -134 -245 -15 -36 -31
-74 -36 -85 -16 -35 -61 -153 -61 -160 0 -4 -6 -21 -14 -38 -8 -18 -17 -43
-20 -57 -2 -14 -12 -50 -21 -80 -32 -107 -96 -414 -97 -460 0 -8 -4 -96 -9
-196 -7 -122 -7 -231 0 -339 10 -150 41 -375 61 -440 5 -16 20 -75 33 -130 27
-111 64 -224 108 -330 16 -38 29 -76 29 -82 0 -7 5 -13 10 -13 6 0 10 -9 10
-20 0 -11 4 -20 8 -20 5 0 14 -17 20 -37 15 -49 135 -259 221 -387 36 -55 71
-107 76 -115 57 -90 344 -393 471 -496 103 -84 227 -176 275 -204 13 -8 60
-37 104 -64 91 -56 304 -165 385 -197 161 -64 459 -152 595 -175 217 -38 246
-40 505 -39 284 0 412 11 610 51 178 36 187 38 267 66 39 14 74 23 77 20 2 -3
18 4 34 16 17 12 37 21 46 21 9 0 74 25 144 55 71 30 134 55 140 55 7 0 12 4
12 9 0 5 14 15 32 22 35 14 289 166 298 177 3 4 14 13 25 20 54 34 81 52 90
59 6 5 51 41 100 82 50 40 135 116 190 169 109 106 335 360 335 378 0 6 9 19
21 30 12 10 28 32 36 49 9 16 19 32 22 35 3 3 22 32 42 65 91 154 129 223 129
238 0 10 3 17 8 17 4 0 13 15 21 32 8 18 32 70 53 116 56 118 85 201 157 462
35 128 45 173 67 315 19 127 29 495 15 595 -46 327 -90 531 -152 695 -10 28
-19 56 -19 62 0 6 -15 44 -33 85 -19 40 -40 89 -47 108 -8 19 -22 50 -32 68
-10 18 -18 39 -18 47 0 8 -5 15 -11 15 -5 0 -8 3 -6 8 2 4 -10 33 -27 64 -17
31 -45 83 -63 116 -66 122 -169 268 -275 390 -38 42 -68 80 -68 83 0 18 -370
353 -474 430 -67 49 -126 92 -131 97 -51 42 -432 242 -461 242 -8 0 -14 4 -14
9 0 5 -8 11 -17 14 -10 3 -49 17 -88 32 -162 62 -299 102 -430 124 -33 6 -82
15 -110 21 -127 26 -415 57 -427 45z m297 -255 c182 -27 281 -46 345 -65 30
-9 75 -21 100 -27 25 -5 49 -14 55 -19 5 -5 19 -9 31 -9 13 0 26 -4 29 -10 3
-5 15 -10 26 -10 10 0 41 -9 67 -21 26 -11 67 -30 92 -41 76 -33 221 -108 264
-136 22 -15 52 -32 66 -39 26 -13 30 -16 146 -95 134 -93 234 -177 359 -304
129 -131 205 -219 272 -314 9 -14 32 -43 50 -66 18 -23 33 -46 33 -51 0 -6 7
-16 15 -23 17 -14 126 -206 154 -273 11 -26 36 -80 55 -120 51 -107 138 -372
150 -457 1 -9 5 -20 8 -25 3 -6 9 -30 13 -55 4 -25 9 -54 11 -64 3 -19 23
-154 30 -206 21 -161 22 -430 4 -575 -12 -92 -65 -354 -81 -403 -6 -18 -12
-46 -14 -62 -5 -41 -31 -87 -57 -101 -26 -14 -159 -5 -210 14 -47 18 -286 10
-321 -10 -14 -8 -459 -7 -505 1 -24 5 -39 12 -36 18 4 7 -8 8 -35 3 -23 -4
-89 -1 -146 6 -81 10 -108 10 -117 1 -7 -7 -30 -12 -51 -12 -35 0 -46 7 -98
61 l-59 61 0 92 c0 186 -27 321 -97 483 -36 82 -38 121 -7 109 18 -7 99 28
111 47 4 6 11 61 15 122 5 60 10 129 12 152 3 34 0 46 -20 64 -27 26 -30 46
-9 73 43 57 -12 137 -92 135 -24 0 -25 -1 -8 -9 11 -4 33 -22 50 -39 l30 -32
-17 -46 c-16 -45 -16 -46 9 -84 23 -36 25 -46 21 -120 -3 -50 -10 -84 -17 -89
-9 -5 -10 -10 -2 -14 37 -23 -17 -126 -65 -126 -14 0 -40 -6 -59 -14 -19 -8
-59 -15 -89 -15 -31 0 -64 -2 -73 -6 -10 -3 -45 -40 -78 -82 -33 -42 -82 -101
-110 -132 -27 -31 -56 -65 -65 -75 -22 -28 -73 -76 -81 -76 -9 0 4 54 30 125
43 117 114 280 128 297 13 14 11 20 -22 50 -41 38 -45 59 -24 131 11 39 11 52
1 68 -18 28 8 67 48 76 24 4 32 13 40 42 11 44 52 101 83 118 12 6 39 15 59
18 57 10 61 29 6 23 -74 -9 -119 -36 -150 -93 -14 -27 -24 -53 -22 -57 5 -7
-35 -27 -64 -32 -7 -1 -18 -8 -24 -14 -17 -17 -30 -15 -137 19 -52 17 -142 37
-200 46 -95 14 -114 14 -218 -1 -63 -9 -153 -30 -201 -47 -178 -62 -168 -60
-189 -37 -10 12 -12 18 -5 14 6 -4 12 -5 12 -1 0 3 -26 18 -57 33 -48 23 -59
33 -68 63 -18 63 -28 69 -110 65 -67 -4 -75 -2 -96 20 -54 58 -159 9 -159 -75
0 -24 -7 -42 -20 -54 -14 -11 -20 -29 -20 -55 0 -21 -5 -43 -12 -50 -7 -7 -12
-53 -14 -119 -2 -99 -1 -109 21 -135 23 -27 24 -58 2 -85 -16 -22 3 -66 50
-114 l45 -47 -26 -88 c-36 -122 -48 -229 -40 -356 8 -121 2 -138 -49 -138 -29
0 -139 -29 -195 -51 -31 -12 -219 -12 -227 1 -8 13 -98 13 -112 -1 -12 -12
-106 -8 -218 11 -45 7 -106 8 -170 3 -55 -4 -111 -7 -124 -6 -14 1 -30 -2 -37
-8 -6 -5 -25 -12 -40 -14 -16 -2 -65 -11 -110 -19 -137 -25 -216 -28 -248 -8
-35 21 -74 133 -111 318 -31 158 -31 162 -46 359 -16 224 -2 508 36 695 3 14
7 36 10 50 3 14 7 36 10 50 3 14 8 36 11 50 2 14 8 36 13 50 5 14 14 45 21 70
27 98 44 147 66 194 13 28 24 55 24 61 0 13 30 79 113 244 53 107 166 293 212
349 54 67 102 127 110 141 17 26 74 88 166 180 77 76 117 113 192 174 12 9 51
41 86 70 35 28 75 58 90 66 14 8 29 19 33 26 4 7 21 18 38 25 16 7 30 16 30
20 0 4 15 15 33 24 17 9 52 28 77 42 108 61 278 143 350 169 163 59 231 80
355 110 148 35 262 52 410 62 50 3 92 7 94 9 14 13 340 2 456 -16z m-1187
-2215 c25 -21 36 -24 80 -18 47 5 52 3 81 -26 17 -17 31 -35 31 -39 0 -5 -17
-25 -38 -45 -49 -48 -147 -87 -200 -80 -22 3 -42 1 -45 -4 -4 -6 10 -10 34
-10 24 0 45 -6 50 -14 6 -10 11 -11 17 -3 11 16 51 36 61 30 5 -3 14 1 21 9 7
8 16 13 20 10 4 -2 15 4 25 15 24 26 78 35 126 21 80 -24 117 -139 68 -217
-24 -39 -50 -48 -118 -42 l-49 5 -5 -40 c-3 -25 -16 -51 -35 -71 -16 -17 -37
-45 -47 -61 -25 -45 -74 -75 -121 -75 -46 0 -78 19 -99 61 -14 27 -14 32 5 69
l21 41 -31 30 c-29 29 -30 34 -30 119 0 82 7 119 45 241 8 26 15 53 15 60 0
21 42 59 66 59 12 0 36 -11 52 -25z m245 -478 c14 -19 65 -107 112 -196 63
-118 84 -166 76 -174 -18 -18 -48 3 -179 123 -142 129 -156 149 -124 183 12
13 22 27 22 31 0 13 44 65 56 65 7 1 23 -14 37 -32z m117 -887 c105 -78 148
-93 271 -98 119 -5 140 2 210 65 34 31 43 35 57 25 10 -6 34 -21 55 -32 20
-11 37 -25 37 -30 0 -11 130 -8 150 5 8 5 33 12 57 15 39 6 41 5 32 -13 -6
-10 -26 -25 -45 -33 -52 -22 -32 -36 45 -33 36 2 68 6 71 9 3 3 28 24 56 47
l51 42 44 -16 c69 -24 174 -14 235 23 119 72 117 73 184 -68 8 -16 22 -28 32
-28 10 0 18 -6 18 -14 0 -15 -74 -31 -91 -20 -6 3 -32 12 -58 19 -52 13 -94 5
-85 -18 5 -15 -39 -57 -60 -57 -6 0 -24 -7 -41 -16 -16 -9 -77 -32 -135 -51
-136 -46 -199 -47 -329 -4 -51 17 -98 35 -105 40 -6 5 -113 11 -237 13 -173 2
-230 6 -242 17 -11 9 -17 10 -17 2 0 -6 -4 -11 -9 -11 -5 0 -26 -8 -47 -17
-22 -9 -41 -16 -44 -16 -18 4 -5 -47 17 -71 43 -46 84 -59 154 -46 72 13 89 4
89 -47 l0 -35 58 6 c31 3 82 8 113 12 51 6 58 4 73 -17 20 -30 21 -49 0 -49
-8 0 -12 -5 -8 -11 4 -7 -3 -10 -17 -9 -51 4 -60 1 -57 -21 2 -12 15 -31 30
-42 30 -22 49 -24 258 -17 111 4 133 1 195 -20 120 -40 190 -28 180 31 -3 16
-2 29 2 30 106 8 222 4 245 -7 15 -8 31 -14 35 -14 5 0 23 -5 41 -11 46 -15
86 -5 142 36 41 30 57 36 111 38 62 3 64 3 66 31 4 53 28 67 109 64 74 -2 104
9 104 38 0 16 -43 57 -63 60 -30 4 -85 35 -117 65 -25 24 -51 36 -95 45 -116
24 -174 57 -142 81 6 6 68 15 137 21 101 9 137 8 190 -4 36 -7 82 -14 103 -14
21 0 82 -7 135 -15 168 -25 327 -38 393 -33 42 4 87 17 131 38 l66 31 41 -20
c22 -12 46 -21 53 -21 7 0 26 -7 42 -15 26 -14 33 -14 60 -1 88 41 116 41 116
0 0 -40 -48 -123 -83 -144 -44 -27 -167 -27 -268 0 -102 27 -159 25 -256 -9
-45 -16 -81 -30 -78 -32 2 -2 -40 -5 -93 -6 -66 -2 -92 0 -82 7 9 6 10 10 3
10 -15 0 -36 -37 -28 -50 3 -6 13 -10 21 -10 8 0 14 -7 14 -14 0 -8 15 -27 34
-41 19 -14 42 -38 51 -52 20 -31 12 -38 -52 -48 -23 -3 -43 -10 -43 -15 0 -5
18 -24 40 -41 22 -18 40 -37 40 -42 0 -12 -60 -4 -172 25 -37 9 -59 9 -102 -1
-77 -17 -229 -94 -366 -184 -63 -41 -149 -93 -190 -116 -78 -41 -313 -146
-365 -163 -101 -31 -180 -48 -252 -54 -73 -6 -83 -5 -83 10 0 23 112 103 168
120 42 13 92 36 129 59 21 13 3 35 -55 68 -32 18 -82 54 -112 81 l-55 48 -105
-6 c-58 -3 -125 -10 -150 -14 -54 -10 -62 -6 -54 27 l7 25 -64 -7 c-53 -6
-323 -8 -509 -4 -53 2 -205 -17 -220 -26 -20 -12 -9 -43 25 -69 45 -35 44 -46
-4 -46 -48 0 -56 -11 -37 -49 24 -45 70 -78 128 -90 28 -7 58 -17 65 -23 8 -7
36 -9 76 -5 34 3 101 3 149 -1 86 -7 88 -8 132 -51 l44 -43 66 10 c46 8 76 19
97 36 18 15 43 26 60 26 31 0 179 -59 179 -71 0 -12 -113 -21 -275 -22 -129
-1 -169 3 -284 27 -170 35 -404 112 -536 177 -57 27 -152 82 -211 121 -104 69
-244 192 -244 215 0 16 35 23 117 23 76 0 80 3 98 54 18 53 34 54 140 11 108
-43 149 -46 239 -15 32 10 85 24 119 30 59 11 137 50 137 69 0 5 -12 17 -27
27 -24 16 -55 19 -220 24 -216 6 -237 12 -190 56 34 31 24 50 -32 60 -20 3
-69 17 -110 32 -56 20 -91 25 -150 25 -42 -1 -116 -1 -166 -1 -49 0 -112 0
-140 -1 -27 0 -124 0 -215 1 -441 6 -556 1 -615 -22 -33 -13 -82 -15 -113 -5
-27 8 -58 59 -67 108 l-7 37 73 -7 c90 -8 208 -8 399 0 94 4 165 2 201 -5 53
-11 105 -7 227 18 21 4 53 0 88 -11 87 -27 128 -25 228 13 215 80 183 74 256
49 36 -13 75 -28 86 -35 57 -31 178 -23 279 19 17 7 32 13 35 13 3 1 27 25 54
54 27 28 51 52 54 52 2 0 35 -22 72 -50z m-1282 -405 c57 -17 81 -42 76 -81
-3 -35 -17 -48 -91 -90 -52 -29 -87 -39 -178 -54 -63 -10 -118 -21 -123 -24
-5 -3 -49 -6 -97 -7 -67 -1 -91 2 -103 15 -25 24 -1 63 56 89 42 20 65 22 205
23 l159 1 30 30 29 30 -27 18 c-15 9 -44 20 -65 22 -42 6 -49 16 -21 32 25 15
91 13 150 -4z m135 -233 c37 -25 77 -81 77 -108 0 -13 -14 -34 -32 -49 l-32
-27 -32 36 c-37 42 -39 40 -49 -64 -8 -87 -20 -114 -64 -144 -58 -41 -112 -36
-181 16 -51 37 -91 88 -69 88 5 0 9 9 9 19 0 11 14 34 32 50 30 28 34 29 50
14 10 -9 18 -24 18 -33 0 -24 20 -40 52 -40 25 0 28 4 29 33 5 138 9 162 33
186 21 21 66 36 116 40 8 0 27 -7 43 -17z m3628 -13 c29 -15 13 -29 -32 -29
-42 0 -79 14 -79 30 0 13 86 13 111 -1z m243 1 c35 -13 33 -26 -5 -39 -43 -15
-63 -14 -107 5 -35 15 -36 16 -18 30 23 16 93 19 130 4z m-572 -47 c27 -24 22
-49 -12 -70 -29 -17 -50 -57 -36 -70 3 -4 46 -1 95 5 135 18 180 -9 189 -114
6 -76 -25 -138 -84 -167 l-44 -21 -27 21 c-43 31 -42 64 4 94 40 26 55 62 28
72 -8 4 -38 2 -66 -3 -29 -6 -71 -10 -94 -10 -37 0 -47 5 -79 40 -30 33 -36
47 -36 83 1 55 27 106 69 134 40 27 68 29 93 6z m-3095 -136 c15 -15 13 -20
-25 -77 -23 -33 -42 -65 -42 -70 0 -6 -4 -10 -9 -10 -6 0 -31 -27 -57 -61 -41
-54 -45 -63 -35 -85 26 -57 62 -34 194 123 43 51 81 93 84 93 14 0 53 -45 53
-61 0 -17 -34 -65 -105 -147 -23 -26 -53 -63 -68 -83 -36 -51 -101 -81 -147
-70 -58 14 -70 22 -100 67 -32 45 -38 91 -20 139 9 22 111 156 182 236 26 30
69 33 95 6z m2912 -72 c38 -19 81 -71 81 -98 0 -12 4 -29 10 -37 5 -9 5 -19
-1 -26 -15 -18 7 -48 69 -95 28 -22 52 -44 52 -49 0 -5 -15 -20 -33 -34 l-34
-26 -62 30 c-64 31 -101 38 -101 18 0 -6 3 -8 7 -5 3 4 19 -18 35 -49 28 -53
28 -57 11 -70 -43 -34 -54 -36 -74 -18 -30 27 -102 131 -139 199 -18 33 -38
67 -45 75 -26 31 -43 75 -35 95 11 29 33 45 104 77 69 31 114 35 155 13z
m-2609 -153 c17 -14 24 -36 34 -102 6 -46 17 -85 23 -87 7 -3 23 13 36 34 40
63 58 75 95 62 44 -15 42 -45 -10 -139 -23 -41 -55 -102 -72 -135 -39 -76 -76
-125 -93 -125 -8 0 -27 10 -43 21 -22 17 -30 33 -36 73 -9 59 -10 71 -12 108
-2 35 -20 29 -52 -20 -37 -55 -46 -62 -77 -62 -39 0 -53 16 -43 49 10 36 58
130 85 166 12 17 35 53 50 80 31 57 63 95 81 95 6 0 22 -8 34 -18z m2273 -19
c15 -17 21 -36 18 -59 0 -6 -19 -23 -41 -38 -42 -27 -51 -55 -25 -76 11 -10
18 -9 30 4 19 19 76 21 93 4 24 -24 13 -57 -28 -84 -43 -29 -43 -28 -34 -61 9
-32 25 -34 79 -8 50 25 68 23 95 -10 12 -14 11 -21 -2 -43 -21 -34 -184 -109
-207 -95 -34 21 -189 358 -178 387 5 12 160 96 178 96 3 0 13 -8 22 -17z
m-284 -166 c57 -144 111 -317 111 -357 0 -23 -36 -50 -66 -50 -12 0 -60 30
-106 66 -63 49 -84 62 -86 49 -2 -9 1 -22 7 -29 6 -7 13 -38 17 -69 8 -67 -4
-87 -51 -87 -37 0 -44 12 -70 120 -9 36 -21 81 -26 100 -6 19 -13 46 -16 60
-2 14 -11 46 -20 73 -14 46 -14 48 9 67 39 32 56 27 154 -51 58 -46 101 -66
76 -36 -5 6 -13 26 -16 42 -3 17 -8 46 -12 66 -13 73 68 104 95 36z m-1405
-28 c55 -15 141 -103 156 -160 18 -67 7 -131 -36 -194 -54 -83 -104 -110 -188
-106 -42 3 -139 41 -150 60 -8 12 13 96 56 231 56 175 59 180 93 180 17 0 48
-5 69 -11z m479 -73 c15 -11 40 -40 55 -65 25 -42 27 -55 27 -146 -1 -115 -17
-158 -81 -214 -66 -59 -122 -66 -191 -26 -72 43 -105 129 -91 241 14 120 68
207 142 231 38 12 103 2 139 -21z m579 -46 c-4 -62 -28 -219 -42 -265 -4 -16
-11 -47 -15 -67 -7 -43 -46 -71 -86 -61 -37 9 -47 20 -65 76 l-17 51 -12 -46
c-6 -26 -17 -53 -23 -61 -7 -8 -9 -16 -6 -19 3 -4 -9 -9 -26 -13 -58 -13 -70
12 -146 288 -13 49 -24 99 -24 112 0 31 30 48 64 36 26 -11 81 -94 72 -110 -4
-5 -2 -12 4 -16 11 -7 30 35 30 68 0 24 37 67 58 67 18 0 52 -29 52 -44 0 -18
32 -96 40 -96 4 0 8 10 8 23 0 12 3 41 7 65 10 53 36 74 90 70 l40 -3 -3 -55z"/>
<path d="M4448 4699 c-10 -5 -18 -16 -18 -24 0 -8 -7 -18 -15 -22 -12 -7 -10
-17 12 -63 14 -30 30 -56 34 -58 5 -2 9 -17 9 -32 0 -24 -14 -41 -71 -90 -83
-72 -87 -72 -208 -8 -42 22 -87 42 -101 45 -14 2 -32 11 -41 19 -8 8 -19 11
-22 7 -4 -3 -7 -1 -7 6 0 7 -4 9 -10 6 -5 -3 -19 -1 -30 5 -27 14 -54 -2 -99
-59 l-31 -39 47 -49 c61 -61 149 -158 191 -211 34 -44 38 -61 21 -94 -6 -12
-7 -18 -1 -14 5 3 13 -5 16 -19 7 -26 108 -105 136 -105 10 0 23 7 30 15 22
26 76 17 158 -26 42 -23 93 -53 112 -65 19 -13 41 -24 49 -24 8 0 22 -6 30
-14 32 -28 56 -28 84 1 46 48 67 76 67 89 0 7 -24 39 -53 71 -114 125 -207
244 -207 265 0 12 19 60 42 106 40 83 42 84 72 78 17 -4 52 -9 77 -12 44 -5
46 -4 73 36 21 31 24 45 16 59 -16 30 -143 141 -162 141 -9 0 -30 11 -46 25
-30 25 -108 65 -127 64 -5 0 -18 -4 -27 -10z"/>
<path d="M1334 4617 c-50 -26 -112 -70 -160 -114 l-78 -72 22 -30 c12 -17 22
-34 22 -38 0 -9 86 -7 130 2 22 5 27 0 47 -47 13 -29 32 -81 44 -115 l21 -63
-79 -87 c-78 -86 -153 -177 -166 -199 -4 -6 3 -22 14 -35 12 -13 31 -36 44
-51 l22 -26 75 36 c42 21 95 46 119 56 24 11 58 26 74 34 62 29 81 31 115 10
22 -13 41 -17 60 -13 31 7 139 109 136 128 -1 7 -10 26 -19 44 l-17 32 57 59
c90 91 148 155 168 185 9 15 22 24 28 20 6 -3 7 -1 3 5 -4 7 -2 12 3 12 17 0
13 40 -5 47 -8 3 -19 16 -24 29 -13 34 -41 46 -71 29 -13 -8 -31 -17 -39 -20
-8 -4 -27 -13 -42 -21 -16 -8 -28 -12 -28 -7 0 4 -4 3 -8 -3 -4 -6 -53 -34
-109 -61 l-102 -50 -28 29 c-15 17 -56 52 -91 80 -60 48 -62 51 -47 72 8 11
21 32 27 46 7 14 20 33 30 43 10 10 18 22 18 28 0 15 -56 69 -72 69 -7 0 -50
-19 -94 -43z"/>
<path d="M4010 3976 c0 -18 33 -74 49 -84 12 -6 20 -18 18 -24 -1 -7 3 -12 10
-13 7 0 23 -9 35 -20 13 -10 24 -18 26 -17 1 1 24 -9 52 -23 64 -33 80 -14 25
29 -22 17 -62 52 -90 77 -59 54 -95 79 -112 79 -7 0 -13 -2 -13 -4z"/>
<path d="M1857 3957 c-3 -8 -21 -22 -41 -31 -20 -9 -36 -20 -36 -25 0 -4 -31
-31 -70 -60 -38 -28 -70 -56 -70 -61 0 -21 22 -19 70 5 27 14 50 23 50 19 0
-3 13 4 29 15 30 21 94 138 81 146 -4 3 -10 -1 -13 -8z"/>
<path d="M3727 3527 c-5 -13 0 -15 41 -18 9 -1 23 -6 30 -12 19 -15 26 -1 11
20 -17 23 -74 30 -82 10z"/>
<path d="M3760 3248 c-23 -11 -51 -17 -61 -15 -25 7 -33 -7 -13 -24 14 -11 22
-10 54 9 32 18 44 20 67 11 34 -13 43 -26 43 -61 0 -19 5 -28 16 -28 11 0 14
6 8 23 -4 12 -8 29 -9 37 -2 27 -24 57 -43 62 -11 3 -38 -3 -62 -14z"/>
<path d="M3891 3114 c0 -11 3 -14 6 -6 3 7 2 16 -1 19 -3 4 -6 -2 -5 -13z"/>
<path d="M2328 1972 c-32 -21 -80 -44 -108 -52 -27 -7 -50 -16 -50 -19 1 -3
17 -17 38 -29 33 -22 42 -23 112 -16 41 4 79 8 85 8 32 3 30 146 -3 146 -9 0
-43 -17 -74 -38z"/>
<path d="M4390 1082 c0 -7 -11 -12 -25 -12 -33 0 -33 -29 -2 -66 l23 -27 22
23 c27 29 28 45 2 72 -11 12 -20 16 -20 10z"/>
<path d="M2404 682 c3 -5 -6 -32 -20 -61 -13 -29 -24 -66 -24 -81 0 -16 -5
-30 -11 -32 -6 -2 0 -9 13 -15 18 -8 32 -8 56 3 66 27 81 130 25 174 -26 20
-49 27 -39 12z"/>
<path d="M2792 627 c-59 -63 -56 -208 4 -223 23 -6 32 -2 50 21 42 53 40 178
-4 213 -21 16 -25 16 -50 -11z"/>
</g>
</svg>
